<?xml version="1.0" encoding="utf-8"?>
<!-- Generator: Adobe Illustrator 27.6.1, SVG Export Plug-In . SVG Version: 6.00 Build 0)  -->
<svg version="1.1" id="Layer_1" xmlns="http://www.w3.org/2000/svg" xmlns:xlink="http://www.w3.org/1999/xlink" x="0px" y="0px"
	 viewBox="0 0 3716.6 987.8" style="enable-background:new 0 0 3716.6 987.8;" xml:space="preserve">
<style type="text/css">
	.st0{fill:#FFAB00;}
	.st1{fill:#3395F1;}
</style>
<g>
	<path class="st0" d="M232.4,758.8h185.4c39.9,0,76.9-9.8,111.1-29.5s61.5-47.1,82-82.2c20.5-35.2,30.8-74,30.8-116.4
		c0-38.5-10.2-74.6-30.5-108.3c-20.4-33.8-47.8-60.7-82.2-81c-34.5-20.2-71.5-30.3-111.1-30.3H30.8v676.8H0V280.3h417.8
		c44.7,0,86.7,11.5,126,34.4c39.3,22.9,70.6,53.7,93.8,92.3c23.2,38.6,34.8,79.8,34.8,123.7c0,50.7-10.9,95.3-32.7,133.7
		c-21.8,38.5-51.3,68.5-88.7,90.1l79.5,233.3h-32.5l-76-218.8c-11.4,4.6-20.1,7.7-26.1,9.4l71.4,209.4h-32.5l-69.6-202.1
		c-2.6,0.6-11.7,1.6-27.3,3l66.2,199.1h-32.5l-65.4-198.2h-27.8l62.4,198.2h-32.5l-62.8-198.2H232.4V758.8z M232.4,697.3h185.4
		c44.4,0,82.6-15.6,114.5-46.8c31.9-31.2,47.9-71.1,47.9-119.8c0-41.9-16.3-78.7-48.9-110.4c-32.6-31.8-70.4-47.6-113.4-47.6H92.3
		v615.2H61.5v-646h356.3c33.9,0,65.7,8.7,95.5,26.1c29.8,17.4,53.5,40.7,71.1,69.9c17.7,29.2,26.5,60.2,26.5,92.9
		c0,56.1-19,103-57,140.8c-38,37.7-83.4,56.6-136.1,56.6H232.4V697.3z M232.4,635.7h185.4c28.2,0,52.1-9.1,71.6-27.3
		c19.5-18.2,29.3-44.1,29.3-77.8c0-24.8-10.3-47.1-30.8-66.9c-20.5-19.8-43.9-29.7-70.1-29.7h-264v553.7H123V403.3h294.8
		c34.7,0,65.4,12.9,91.9,38.7c26.5,25.8,39.7,55.3,39.7,88.7c0,41-12.8,73.9-38.5,98.7s-56.7,37.2-93.1,37.2H232.4V635.7z
		 M215.3,987.8h-30.8V464.8h233.3c19.1,0,35.5,6.5,49.3,19.4c13.8,13,20.7,28.4,20.7,46.4c0,49.6-23.4,74.3-70.1,74.3H232.4v-30.8
		h185.4c12.2,0,21.9-3.2,28.8-9.6c7-6.4,10.5-17.7,10.5-34c0-10-3.8-18.3-11.3-25c-7.6-6.7-16.9-10-28-10H215.3V987.8z"/>
	<path class="st0" d="M746,987.8h-33.3l279.8-707.5h33.3l279.4,707.5h-32.9l-263.2-666.1L746,987.8z M1013,394.8l17.5,39.3
		L811.8,987.8h-32.9L1013,394.8z M1047.2,476l16.2,42.3l-185,469.5h-33.3L1047.2,476z M1079.7,560.5l16.2,43.2L944.2,987.8h-32.9
		L1079.7,560.5z M995.9,903.2l12-30.8h201.7l12.8,30.8H995.9z M1019.8,841.7l12-30.8h153.4l13.2,30.8H1019.8z M1043.8,780.2
		l12.4-30.8h105.1l12.4,30.8H1043.8z M1091.6,280.3l279.8,707.5h-33.3l-279.4-707.5H1091.6z M1157.8,280.3l279.8,707.5h-32.9
		l-279.8-707.5H1157.8z M1503.9,987.8h-33.3l-279.4-707.5h32.9L1503.9,987.8z"/>
	<path class="st0" d="M1952.1,987.8h-394.3V280.3h394.3c55.5,0,107.4,15.8,155.5,47.4c48.1,31.6,86.5,74.6,115.1,129
		c28.6,54.4,42.9,113.5,42.9,177.3c0,47.9-8.5,93.6-25.4,137.4c-17,43.7-39.5,81.4-67.7,113s-61.6,56.8-100.2,75.4
		C2033.8,978.5,1993.7,987.8,1952.1,987.8z M1588.5,957h363.6c37.3,0,73.3-8.5,108.1-25.6c34.7-17.1,64.8-40,90.1-68.8
		c25.3-28.8,45.6-63.2,60.9-103.2c15.2-40,22.9-81.8,22.9-125.4s-7.6-85.3-22.9-125.2c-15.2-39.9-35.5-74.3-60.9-103.2
		c-25.4-28.9-55.4-51.9-90.1-69c-34.8-17.1-70.8-25.6-108.1-25.6h-363.6V957z M1619.3,926.3V341.8h332.8c44.4,0,85.9,13,124.3,39.1
		c38.5,26.1,69.1,61.6,91.9,106.6c22.8,45,34.2,93.9,34.2,146.5c0,52.7-11.4,101.5-34.2,146.5c-22.8,45-53.4,80.5-91.9,106.6
		c-38.5,26.1-79.9,39.1-124.3,39.1H1619.3z M1650,895.5h302.1c39,0,75.3-11.7,108.7-35c33.5-23.4,60.2-55.1,80.1-95.3
		c19.9-40.2,29.9-83.9,29.9-131.2c0-47-10-90.6-29.9-131c-19.9-40.3-46.7-72.1-80.3-95.5c-33.6-23.4-69.8-35-108.5-35H1650V895.5z
		 M1680.8,864.7V403.3h271.3c33.3,0,64.4,10.3,93.1,30.8c28.8,20.5,51.6,48.5,68.6,84c16.9,35.5,25.4,74.1,25.4,116
		c0,41.6-8.5,80.2-25.4,115.8c-17,35.6-39.8,63.7-68.6,84.2c-28.8,20.5-59.8,30.8-93.1,30.8H1680.8z M1711.5,834h240.5
		c42.4,0,79-19.6,109.6-58.7c30.6-39.2,45.9-86.2,45.9-141.2c0-36.2-7-69.6-21.1-100.4c-14.1-30.8-33-55-56.8-72.8
		c-23.8-17.8-49.6-26.7-77.5-26.7h-240.5V834z M1742.3,803.2V464.8h209.8c33.9,0,63,16.6,87.4,49.8c24.4,33.2,36.5,73,36.5,119.4
		c0,46.7-12.2,86.6-36.5,119.6c-24.4,33-53.5,49.6-87.4,49.6H1742.3z M1773.1,772.5h179c25.3,0,47.1-13.5,65.2-40.6
		c18.1-27.1,27.1-59.7,27.1-97.8c0-38.5-9-71.1-27.1-98.1c-18.1-26.9-39.8-40.4-65.2-40.4h-179V772.5z"/>
	<path class="st1" d="M2331.9,587.9v-30.8h338.4v30.8H2331.9z M2331.9,649.4v-30.8h338.4v30.8H2331.9z M2331.9,710.9v-30.8h338.4
		v30.8H2331.9z"/>
	<path class="st1" d="M2747.6,280.3h30.8v707.5h-30.8V280.3z M2806.6,161.5l-24.4-22.2L3067.2,0l24.4,22.2L2806.6,161.5z
		 M2809.1,280.3h30.8v707.5h-30.8V280.3z M2855.3,205.9l-24.4-22.2l284.5-139.3l24.8,22.6L2855.3,205.9z M2870.7,280.3h30.8v707.5
		h-30.8V280.3z M2932.2,280.3h30.8v707.5h-30.8V280.3z"/>
	<path class="st1" d="M3276.6,758.8H3462c39.9,0,76.9-9.8,111.1-29.5s61.5-47.1,82-82.2c20.5-35.2,30.8-74,30.8-116.4
		c0-38.5-10.2-74.6-30.5-108.3c-20.4-33.8-47.8-60.7-82.2-81c-34.5-20.2-71.5-30.3-111.1-30.3h-387.1v676.8h-30.8V280.3H3462
		c44.7,0,86.7,11.5,126,34.4c39.3,22.9,70.6,53.7,93.8,92.3c23.2,38.6,34.8,79.8,34.8,123.7c0,50.7-10.9,95.3-32.7,133.7
		c-21.8,38.5-51.3,68.5-88.7,90.1l79.5,233.3h-32.5L3566.2,769c-11.4,4.6-20.1,7.7-26.1,9.4l71.4,209.4H3579l-69.6-202.1
		c-2.6,0.6-11.7,1.6-27.3,3l66.2,199.1h-32.5l-65.4-198.2h-27.8l62.4,198.2h-32.5l-62.8-198.2h-113.2V758.8z M3276.6,697.3H3462
		c44.4,0,82.6-15.6,114.5-46.8c31.9-31.2,47.9-71.1,47.9-119.8c0-41.9-16.3-78.7-48.9-110.4c-32.6-31.8-70.4-47.6-113.4-47.6h-325.6
		v615.2h-30.8v-646H3462c33.9,0,65.7,8.7,95.5,26.1c29.8,17.4,53.5,40.7,71.1,69.9c17.7,29.2,26.5,60.2,26.5,92.9
		c0,56.1-19,103-57,140.8c-38,37.7-83.4,56.6-136.1,56.6h-185.4V697.3z M3276.6,635.7H3462c28.2,0,52.1-9.1,71.6-27.3
		c19.5-18.2,29.3-44.1,29.3-77.8c0-24.8-10.3-47.1-30.8-66.9c-20.5-19.8-43.9-29.7-70.1-29.7h-264v553.7h-30.8V403.3H3462
		c34.7,0,65.4,12.9,91.9,38.7c26.5,25.8,39.7,55.3,39.7,88.7c0,41-12.8,73.9-38.5,98.7s-56.7,37.2-93.1,37.2h-185.4V635.7z
		 M3259.5,987.8h-30.8V464.8H3462c19.1,0,35.5,6.5,49.3,19.4c13.8,13,20.7,28.4,20.7,46.4c0,49.6-23.4,74.3-70.1,74.3h-185.4v-30.8
		H3462c12.2,0,21.9-3.2,28.8-9.6c7-6.4,10.5-17.7,10.5-34c0-10-3.8-18.3-11.3-25c-7.6-6.7-16.9-10-28-10h-202.5V987.8z"/>
</g>
</svg>
